{
  "asset": {
    "version": "2.0",
    "generator": "Sketchup glTF Exporter v1.2.6 by Centaur"
  },
  "scene": 0,
  "scenes": [
    {
      "nodes": [
        0
      ]
    }
  ],
  "samplers": [
    {
    }
  ],
  "nodes": [
    {
      "name": "root",
      "children": [
        1,
        2,
        3,
        4,
        5,
        6,
        7,
        8,
        23,
        24
      ],
      "mesh": 16
    },
    {
      "name": "Structure",
      "mesh": 0
    },
    {
      "mesh": 1
    },
    {
      "name": "Columns",
      "mesh": 2
    },
    {
      "name": "Columns",
      "mesh": 3
    },
    {
      "name": "Columns",
      "mesh": 4
    },
    {
      "name": "Columns",
      "mesh": 5
    },
    {
      "name": "Difference",
      "mesh": 6
    },
    {
      "children": [
        9,
        11,
        13,
        15,
        17,
        19,
        21
      ]
    },
    {
      "name": "Stage Chair - Panelist",
      "children": [
        10
      ]
    },
    {
      "mesh": 7
    },
    {
      "name": "Stage Chair - Panelist",
      "children": [
        12
      ]
    },
    {
      "mesh": 8
    },
    {
      "name": "Coffee Table",
      "children": [
        14
      ]
    },
    {
      "mesh": 9
    },
    {
      "name": "Stage Chair - Panelist",
      "children": [
        16
      ]
    },
    {
      "mesh": 10
    },
    {
      "name": "Stage Chair - Panelist",
      "children": [
        18
      ]
    },
    {
      "mesh": 11
    },
    {
      "name": "Stage Chair - Panelist",
      "children": [
        20
      ]
    },
    {
      "mesh": 12
    },
    {
      "name": "Stage Chair - Panelist",
      "children": [
        22
      ]
    },
    {
      "mesh": 13
    },
    {
      "mesh": 14
    },
    {
      "name": "Podium 1.5 x 1",
      "mesh": 15
    }
  ],
  "materials": [
    {
      "pbrMetallicRoughness": {
        "baseColorTexture": {
          "index": 0
        },
        "metallicFactor": 0.1,
        "roughnessFactor": 0.9
      },
      "name": "Building - Floor - Concrete - Grey"
    },
    {
      "pbrMetallicRoughness": {
        "baseColorFactor": [
          1.0,
          1.0,
          1.0,
          1.0
        ],
        "metallicFactor": 0.1,
        "roughnessFactor": 0.9
      },
      "name": "Building - Structure - Paint - White"
    },
    {
      "pbrMetallicRoughness": {
        "baseColorFactor": [
          1.0,
          1.0,
          1.0,
          1.0
        ],
        "metallicFactor": 0.1,
        "roughnessFactor": 0.9
      },
      "name": "Building - Wall - Paint - White"
    },
    {
      "pbrMetallicRoughness": {
        "baseColorFactor": [
          1.0,
          1.0,
          1.0,
          1.0
        ],
        "metallicFactor": 0.1,
        "roughnessFactor": 0.9
      },
      "name": "Building - Ceiling - Paint - White",
      "doubleSided": true
    },
    {
      "pbrMetallicRoughness": {
        "baseColorTexture": {
          "index": 1
        },
        "metallicFactor": 0.1,
        "roughnessFactor": 0.9
      },
      "name": "Building - Furniture - Chair - Grey Fabric"
    },
    {
      "pbrMetallicRoughness": {
        "baseColorTexture": {
          "index": 2
        },
        "metallicFactor": 0.1,
        "roughnessFactor": 0.9
      },
      "name": "Building - Furniture - Chair - Wood"
    },
    {
      "pbrMetallicRoughness": {
        "baseColorFactor": [
          1.0,
          1.0,
          1.0,
          1.0
        ],
        "metallicFactor": 0.1,
        "roughnessFactor": 0.9
      },
      "name": "Building - Furniture - Coffee Table - White"
    },
    {
      "pbrMetallicRoughness": {
        "baseColorFactor": [
          1.0,
          1.0,
          1.0,
          1.0
        ],
        "metallicFactor": 0.1,
        "roughnessFactor": 0.9
      },
      "name": "Building - Stage - Paint - White"
    }
  ],
  "images": [
    {
      "bufferView": 0,
      "mimeType": "image/jpeg"
    },
    {
      "bufferView": 1,
      "mimeType": "image/jpeg"
    },
    {
      "bufferView": 2,
      "mimeType": "image/jpeg"
    }
  ],
  "textures": [
    {
      "source": 0,
      "sampler": 0
    },
    {
      "source": 1,
      "sampler": 0
    },
    {
      "source": 2,
      "sampler": 0
    }
  ],
  "meshes": [
    {
      "primitives": [
        {
          "attributes": {
            "POSITION": 0,
            "NORMAL": 1
          },
          "indices": 5,
          "mode": 4,
          "material": 1
        }
      ]
    },
    {
      "primitives": [
        {
          "attributes": {
            "POSITION": 0,
            "NORMAL": 1
          },
          "indices": 6,
          "mode": 4,
          "material": 1
        }
      ]
    },
    {
      "primitives": [
        {
          "attributes": {
            "POSITION": 0,
            "NORMAL": 1
          },
          "indices": 7,
          "mode": 4,
          "material": 2
        }
      ]
    },
    {
      "primitives": [
        {
          "attributes": {
            "POSITION": 0,
            "NORMAL": 1
          },
          "indices": 8,
          "mode": 4,
          "material": 2
        }
      ]
    },
    {
      "primitives": [
        {
          "attributes": {
            "POSITION": 0,
            "NORMAL": 1
          },
          "indices": 9,
          "mode": 4,
          "material": 2
        }
      ]
    },
    {
      "primitives": [
        {
          "attributes": {
            "POSITION": 0,
            "NORMAL": 1
          },
          "indices": 10,
          "mode": 4,
          "material": 2
        }
      ]
    },
    {
      "primitives": [
        {
          "attributes": {
            "POSITION": 0,
            "NORMAL": 1
          },
          "indices": 11,
          "mode": 4,
          "material": 3
        },
        {
          "attributes": {
            "POSITION": 0,
            "NORMAL": 1
          },
          "indices": 12,
          "mode": 4,
          "material": 2
        }
      ]
    },
    {
      "primitives": [
        {
          "attributes": {
            "POSITION": 2,
            "NORMAL": 3,
            "TEXCOORD_0": 4
          },
          "indices": 13,
          "mode": 4,
          "material": 4
        },
        {
          "attributes": {
            "POSITION": 2,
            "NORMAL": 3,
            "TEXCOORD_0": 4
          },
          "indices": 14,
          "mode": 4,
          "material": 5
        }
      ]
    },
    {
      "primitives": [
        {
          "attributes": {
            "POSITION": 2,
            "NORMAL": 3,
            "TEXCOORD_0": 4
          },
          "indices": 15,
          "mode": 4,
          "material": 4
        },
        {
          "attributes": {
            "POSITION": 2,
            "NORMAL": 3,
            "TEXCOORD_0": 4
          },
          "indices": 16,
          "mode": 4,
          "material": 5
        }
      ]
    },
    {
      "primitives": [
        {
          "attributes": {
            "POSITION": 2,
            "NORMAL": 3,
            "TEXCOORD_0": 4
          },
          "indices": 17,
          "mode": 4,
          "material": 5
        },
        {
          "attributes": {
            "POSITION": 0,
            "NORMAL": 1
          },
          "indices": 18,
          "mode": 4,
          "material": 6
        }
      ]
    },
    {
      "primitives": [
        {
          "attributes": {
            "POSITION": 2,
            "NORMAL": 3,
            "TEXCOORD_0": 4
          },
          "indices": 19,
          "mode": 4,
          "material": 4
        },
        {
          "attributes": {
            "POSITION": 2,
            "NORMAL": 3,
            "TEXCOORD_0": 4
          },
          "indices": 20,
          "mode": 4,
          "material": 5
        }
      ]
    },
    {
      "primitives": [
        {
          "attributes": {
            "POSITION": 2,
            "NORMAL": 3,
            "TEXCOORD_0": 4
          },
          "indices": 21,
          "mode": 4,
          "material": 4
        },
        {
          "attributes": {
            "POSITION": 2,
            "NORMAL": 3,
            "TEXCOORD_0": 4
          },
          "indices": 22,
          "mode": 4,
          "material": 5
        }
      ]
    },
    {
      "primitives": [
        {
          "attributes": {
            "POSITION": 2,
            "NORMAL": 3,
            "TEXCOORD_0": 4
          },
          "indices": 23,
          "mode": 4,
          "material": 4
        },
        {
          "attributes": {
            "POSITION": 2,
            "NORMAL": 3,
            "TEXCOORD_0": 4
          },
          "indices": 24,
          "mode": 4,
          "material": 5
        }
      ]
    },
    {
      "primitives": [
        {
          "attributes": {
            "POSITION": 2,
            "NORMAL": 3,
            "TEXCOORD_0": 4
          },
          "indices": 25,
          "mode": 4,
          "material": 4
        },
        {
          "attributes": {
            "POSITION": 2,
            "NORMAL": 3,
            "TEXCOORD_0": 4
          },
          "indices": 26,
          "mode": 4,
          "material": 5
        }
      ]
    },
    {
      "primitives": [
        {
          "attributes": {
            "POSITION": 0,
            "NORMAL": 1
          },
          "indices": 27,
          "mode": 4,
          "material": 7
        }
      ]
    },
    {
      "primitives": [
        {
          "attributes": {
            "POSITION": 0,
            "NORMAL": 1
          },
          "indices": 28,
          "mode": 4,
          "material": 6
        }
      ]
    },
    {
      "primitives": [
        {
          "attributes": {
            "POSITION": 2,
            "NORMAL": 3,
            "TEXCOORD_0": 4
          },
          "indices": 29,
          "mode": 4,
          "material": 0
        }
      ]
    }
  ],
  "accessors": [
    {
      "bufferView": 3,
      "componentType": 5126,
      "count": 50829,
      "type": "VEC3",
      "min": [
        -6.5839051803544795,
        -3.5267237536299867e-16,
        -7.594600000000014
      ],
      "max": [
        6.583905180354527,
        5.587999999999986,
        7.594600000000003
      ]
    },
    {
      "bufferView": 4,
      "componentType": 5126,
      "count": 50829,
      "type": "VEC3",
      "min": [
        -1.0,
        -1.0,
        -1.0
      ],
      "max": [
        1.0,
        1.0,
        1.0
      ]
    },
    {
      "bufferView": 5,
      "componentType": 5126,
      "count": 25044,
      "type": "VEC3",
      "min": [
        -6.58390518035448,
        -1.0407941927409376e-16,
        -7.594600000000003
      ],
      "max": [
        6.583905180354489,
        1.0208598673820246,
        7.5946
      ]
    },
    {
      "bufferView": 6,
      "componentType": 5126,
      "count": 25044,
      "type": "VEC3",
      "min": [
        -0.9999999999999999,
        -1.0,
        -0.9986515674165721
      ],
      "max": [
        0.9999999999999999,
        1.0,
        0.9986515674165721
      ]
    },
    {
      "bufferView": 7,
      "componentType": 5126,
      "count": 25044,
      "type": "VEC2",
      "min": [
        -53.322744258707765,
        -11.358205405543206
      ],
      "max": [
        9.412814610946134,
        51.617598509413696
      ]
    },
    {
      "bufferView": 8,
      "componentType": 5123,
      "count": 2196,
      "type": "SCALAR"
    },
    {
      "bufferView": 8,
      "componentType": 5123,
      "count": 68367,
      "type": "SCALAR",
      "byteOffset": 4392
    },
    {
      "bufferView": 8,
      "componentType": 5123,
      "count": 84,
      "type": "SCALAR",
      "byteOffset": 141126
    },
    {
      "bufferView": 8,
      "componentType": 5123,
      "count": 84,
      "type": "SCALAR",
      "byteOffset": 141294
    },
    {
      "bufferView": 8,
      "componentType": 5123,
      "count": 84,
      "type": "SCALAR",
      "byteOffset": 141462
    },
    {
      "bufferView": 8,
      "componentType": 5123,
      "count": 84,
      "type": "SCALAR",
      "byteOffset": 141630
    },
    {
      "bufferView": 8,
      "componentType": 5123,
      "count": 672,
      "type": "SCALAR",
      "byteOffset": 141798
    },
    {
      "bufferView": 8,
      "componentType": 5123,
      "count": 96,
      "type": "SCALAR",
      "byteOffset": 143142
    },
    {
      "bufferView": 9,
      "componentType": 5123,
      "count": 5598,
      "type": "SCALAR"
    },
    {
      "bufferView": 9,
      "componentType": 5123,
      "count": 864,
      "type": "SCALAR",
      "byteOffset": 11196
    },
    {
      "bufferView": 9,
      "componentType": 5123,
      "count": 5598,
      "type": "SCALAR",
      "byteOffset": 12924
    },
    {
      "bufferView": 9,
      "componentType": 5123,
      "count": 864,
      "type": "SCALAR",
      "byteOffset": 24120
    },
    {
      "bufferView": 9,
      "componentType": 5123,
      "count": 864,
      "type": "SCALAR",
      "byteOffset": 25848
    },
    {
      "bufferView": 8,
      "componentType": 5123,
      "count": 564,
      "type": "SCALAR",
      "byteOffset": 143334
    },
    {
      "bufferView": 9,
      "componentType": 5123,
      "count": 5598,
      "type": "SCALAR",
      "byteOffset": 27576
    },
    {
      "bufferView": 9,
      "componentType": 5123,
      "count": 864,
      "type": "SCALAR",
      "byteOffset": 38772
    },
    {
      "bufferView": 9,
      "componentType": 5123,
      "count": 5598,
      "type": "SCALAR",
      "byteOffset": 40500
    },
    {
      "bufferView": 9,
      "componentType": 5123,
      "count": 864,
      "type": "SCALAR",
      "byteOffset": 51696
    },
    {
      "bufferView": 9,
      "componentType": 5123,
      "count": 5598,
      "type": "SCALAR",
      "byteOffset": 53424
    },
    {
      "bufferView": 9,
      "componentType": 5123,
      "count": 864,
      "type": "SCALAR",
      "byteOffset": 64620
    },
    {
      "bufferView": 9,
      "componentType": 5123,
      "count": 5598,
      "type": "SCALAR",
      "byteOffset": 66348
    },
    {
      "bufferView": 9,
      "componentType": 5123,
      "count": 864,
      "type": "SCALAR",
      "byteOffset": 77544
    },
    {
      "bufferView": 8,
      "componentType": 5123,
      "count": 1140,
      "type": "SCALAR",
      "byteOffset": 144462
    },
    {
      "bufferView": 8,
      "componentType": 5123,
      "count": 144,
      "type": "SCALAR",
      "byteOffset": 146742
    },
    {
      "bufferView": 9,
      "componentType": 5123,
      "count": 6,
      "type": "SCALAR",
      "byteOffset": 79272
    }
  ],
  "bufferViews": [
    {
      "buffer": 0,
      "byteLength": 72479
    },
    {
      "buffer": 0,
      "byteOffset": 72479,
      "byteLength": 20259
    },
    {
      "buffer": 0,
      "byteOffset": 92738,
      "byteLength": 10307
    },
    {
      "buffer": 0,
      "byteOffset": 103056,
      "byteLength": 609948,
      "target": 34962,
      "byteStride": 12
    },
    {
      "buffer": 0,
      "byteOffset": 713004,
      "byteLength": 609948,
      "target": 34962,
      "byteStride": 12
    },
    {
      "buffer": 0,
      "byteOffset": 1322952,
      "byteLength": 300528,
      "target": 34962,
      "byteStride": 12
    },
    {
      "buffer": 0,
      "byteOffset": 1623480,
      "byteLength": 300528,
      "target": 34962,
      "byteStride": 12
    },
    {
      "buffer": 0,
      "byteOffset": 1924008,
      "byteLength": 200352,
      "target": 34962,
      "byteStride": 8
    },
    {
      "buffer": 0,
      "byteOffset": 2124360,
      "byteLength": 147030,
      "target": 34963
    },
    {
      "buffer": 0,
      "byteOffset": 2271390,
      "byteLength": 79284,
      "target": 34963
    }
  ],
  "buffers": [
    {
      "uri": "data:application/octet-stream;base64,",
      "byteLength": 2350674
    }
  ]
}