{
  "asset": {
    "version": "2.0",
    "generator": "Sketchup glTF Exporter v1.2.6 by Centaur"
  },
  "scene": 0,
  "scenes": [
    {
      "nodes": [
        0
      ]
    }
  ],
  "samplers": [
    {
    }
  ],
  "nodes": [
    {
      "name": "root",
      "children": [
        1
      ]
    },
    {
      "children": [
        2,
        15
      ]
    },
    {
      "children": [
        3,
        5,
        7,
        9,
        11,
        13
      ]
    },
    {
      "name": "Stage Chair - Panelist",
      "children": [
        4
      ]
    },
    {
      "mesh": 0
    },
    {
      "name": "Stage Chair - Panelist",
      "children": [
        6
      ]
    },
    {
      "mesh": 1
    },
    {
      "name": "Stage Chair - Panelist",
      "children": [
        8
      ]
    },
    {
      "mesh": 2
    },
    {
      "name": "Stage Chair - Panelist",
      "children": [
        10
      ]
    },
    {
      "mesh": 3
    },
    {
      "name": "Stage Chair - Panelist",
      "children": [
        12
      ]
    },
    {
      "mesh": 4
    },
    {
      "name": "Coffee Table",
      "children": [
        14
      ]
    },
    {
      "mesh": 5
    },
    {
      "children": [
        16
      ]
    },
    {
      "mesh": 6
    }
  ],
  "materials": [
    {
      "pbrMetallicRoughness": {
        "baseColorTexture": {
          "index": 0
        },
        "metallicFactor": 0.1,
        "roughnessFactor": 0.9
      },
      "name": "Chair - Fabric"
    },
    {
      "pbrMetallicRoughness": {
        "baseColorTexture": {
          "index": 1
        },
        "metallicFactor": 0.1,
        "roughnessFactor": 0.9
      },
      "name": "Chair - Legs"
    },
    {
      "pbrMetallicRoughness": {
        "baseColorTexture": {
          "index": 2
        },
        "metallicFactor": 0.1,
        "roughnessFactor": 0.9
      },
      "name": "Coffee Table - Legs"
    },
    {
      "pbrMetallicRoughness": {
        "baseColorFactor": [
          1.0,
          1.0,
          1.0,
          1.0
        ],
        "metallicFactor": 0.1,
        "roughnessFactor": 0.9
      },
      "name": "Coffee Table - Top"
    },
    {
      "pbrMetallicRoughness": {
        "baseColorFactor": [
          1.0,
          1.0,
          1.0,
          1.0
        ],
        "metallicFactor": 0.1,
        "roughnessFactor": 0.9
      },
      "name": "Stage"
    }
  ],
  "images": [
    {
      "bufferView": 0,
      "mimeType": "image/jpeg"
    },
    {
      "bufferView": 1,
      "mimeType": "image/jpeg"
    },
    {
      "bufferView": 2,
      "mimeType": "image/jpeg"
    }
  ],
  "textures": [
    {
      "source": 0,
      "sampler": 0
    },
    {
      "source": 1,
      "sampler": 0
    },
    {
      "source": 2,
      "sampler": 0
    }
  ],
  "meshes": [
    {
      "primitives": [
        {
          "attributes": {
            "POSITION": 2,
            "NORMAL": 3,
            "TEXCOORD_0": 4
          },
          "indices": 5,
          "mode": 4,
          "material": 0
        },
        {
          "attributes": {
            "POSITION": 2,
            "NORMAL": 3,
            "TEXCOORD_0": 4
          },
          "indices": 6,
          "mode": 4,
          "material": 1
        }
      ]
    },
    {
      "primitives": [
        {
          "attributes": {
            "POSITION": 2,
            "NORMAL": 3,
            "TEXCOORD_0": 4
          },
          "indices": 7,
          "mode": 4,
          "material": 0
        },
        {
          "attributes": {
            "POSITION": 2,
            "NORMAL": 3,
            "TEXCOORD_0": 4
          },
          "indices": 8,
          "mode": 4,
          "material": 1
        }
      ]
    },
    {
      "primitives": [
        {
          "attributes": {
            "POSITION": 2,
            "NORMAL": 3,
            "TEXCOORD_0": 4
          },
          "indices": 9,
          "mode": 4,
          "material": 0
        },
        {
          "attributes": {
            "POSITION": 2,
            "NORMAL": 3,
            "TEXCOORD_0": 4
          },
          "indices": 10,
          "mode": 4,
          "material": 1
        }
      ]
    },
    {
      "primitives": [
        {
          "attributes": {
            "POSITION": 2,
            "NORMAL": 3,
            "TEXCOORD_0": 4
          },
          "indices": 11,
          "mode": 4,
          "material": 0
        },
        {
          "attributes": {
            "POSITION": 2,
            "NORMAL": 3,
            "TEXCOORD_0": 4
          },
          "indices": 12,
          "mode": 4,
          "material": 1
        }
      ]
    },
    {
      "primitives": [
        {
          "attributes": {
            "POSITION": 2,
            "NORMAL": 3,
            "TEXCOORD_0": 4
          },
          "indices": 13,
          "mode": 4,
          "material": 0
        },
        {
          "attributes": {
            "POSITION": 2,
            "NORMAL": 3,
            "TEXCOORD_0": 4
          },
          "indices": 14,
          "mode": 4,
          "material": 1
        }
      ]
    },
    {
      "primitives": [
        {
          "attributes": {
            "POSITION": 2,
            "NORMAL": 3,
            "TEXCOORD_0": 4
          },
          "indices": 15,
          "mode": 4,
          "material": 2
        },
        {
          "attributes": {
            "POSITION": 0,
            "NORMAL": 1
          },
          "indices": 16,
          "mode": 4,
          "material": 3
        }
      ]
    },
    {
      "primitives": [
        {
          "attributes": {
            "POSITION": 0,
            "NORMAL": 1
          },
          "indices": 17,
          "mode": 4,
          "material": 4
        }
      ]
    }
  ],
  "accessors": [
    {
      "bufferView": 3,
      "componentType": 5126,
      "count": 576,
      "type": "VEC3",
      "min": [
        -2.1853814605857695,
        1.1271712617631715e-14,
        -2.644697869363907
      ],
      "max": [
        2.1853814605857815,
        0.6280156740781488,
        2.6446978693639065
      ]
    },
    {
      "bufferView": 4,
      "componentType": 5126,
      "count": 576,
      "type": "VEC3",
      "min": [
        -1.0,
        -1.0,
        -1.0
      ],
      "max": [
        1.0,
        1.0,
        1.0
      ]
    },
    {
      "bufferView": 5,
      "componentType": 5126,
      "count": 20948,
      "type": "VEC3",
      "min": [
        -0.8552314480290097,
        0.30479999999999996,
        -1.8428575010692525
      ],
      "max": [
        0.5791779974633414,
        1.0208598673820246,
        1.8581441087966992
      ]
    },
    {
      "bufferView": 6,
      "componentType": 5126,
      "count": 20948,
      "type": "VEC3",
      "min": [
        -0.9998065585440203,
        -1.0,
        -1.0
      ],
      "max": [
        1.0,
        0.9999824362837139,
        0.999655606853929
      ]
    },
    {
      "bufferView": 7,
      "componentType": 5126,
      "count": 20948,
      "type": "VEC2",
      "min": [
        -10.089300899053146,
        -11.358205405543206
      ],
      "max": [
        9.412814610946134,
        9.826656076275762
      ]
    },
    {
      "bufferView": 9,
      "componentType": 5123,
      "count": 5598,
      "type": "SCALAR"
    },
    {
      "bufferView": 9,
      "componentType": 5123,
      "count": 864,
      "type": "SCALAR",
      "byteOffset": 11196
    },
    {
      "bufferView": 9,
      "componentType": 5123,
      "count": 5598,
      "type": "SCALAR",
      "byteOffset": 12924
    },
    {
      "bufferView": 9,
      "componentType": 5123,
      "count": 864,
      "type": "SCALAR",
      "byteOffset": 24120
    },
    {
      "bufferView": 9,
      "componentType": 5123,
      "count": 5598,
      "type": "SCALAR",
      "byteOffset": 25848
    },
    {
      "bufferView": 9,
      "componentType": 5123,
      "count": 864,
      "type": "SCALAR",
      "byteOffset": 37044
    },
    {
      "bufferView": 9,
      "componentType": 5123,
      "count": 5598,
      "type": "SCALAR",
      "byteOffset": 38772
    },
    {
      "bufferView": 9,
      "componentType": 5123,
      "count": 864,
      "type": "SCALAR",
      "byteOffset": 49968
    },
    {
      "bufferView": 9,
      "componentType": 5123,
      "count": 5598,
      "type": "SCALAR",
      "byteOffset": 51696
    },
    {
      "bufferView": 9,
      "componentType": 5123,
      "count": 864,
      "type": "SCALAR",
      "byteOffset": 62892
    },
    {
      "bufferView": 9,
      "componentType": 5123,
      "count": 864,
      "type": "SCALAR",
      "byteOffset": 64620
    },
    {
      "bufferView": 8,
      "componentType": 5123,
      "count": 564,
      "type": "SCALAR"
    },
    {
      "bufferView": 8,
      "componentType": 5123,
      "count": 1140,
      "type": "SCALAR",
      "byteOffset": 1128
    }
  ],
  "bufferViews": [
    {
      "buffer": 0,
      "byteLength": 20259
    },
    {
      "buffer": 0,
      "byteOffset": 20259,
      "byteLength": 10307
    },
    {
      "buffer": 0,
      "byteOffset": 30566,
      "byteLength": 10307
    },
    {
      "buffer": 0,
      "byteOffset": 40884,
      "byteLength": 6912,
      "target": 34962,
      "byteStride": 12
    },
    {
      "buffer": 0,
      "byteOffset": 47796,
      "byteLength": 6912,
      "target": 34962,
      "byteStride": 12
    },
    {
      "buffer": 0,
      "byteOffset": 54708,
      "byteLength": 251376,
      "target": 34962,
      "byteStride": 12
    },
    {
      "buffer": 0,
      "byteOffset": 306084,
      "byteLength": 251376,
      "target": 34962,
      "byteStride": 12
    },
    {
      "buffer": 0,
      "byteOffset": 557464,
      "byteLength": 167584,
      "target": 34962,
      "byteStride": 8
    },
    {
      "buffer": 0,
      "byteOffset": 725048,
      "byteLength": 3408,
      "target": 34963
    },
    {
      "buffer": 0,
      "byteOffset": 728456,
      "byteLength": 66348,
      "target": 34963
    }
  ],
  "buffers": [
    {
      "uri": "data:application/octet-stream;base64,",
      "byteLength": 794804
    }
  ]
}